<svg width="32" height="32" viewBox="0 0 800 800" fill="none" xmlns="http://www.w3.org/2000/svg">
<path d="M191.667 691.667H441.667C452.713 691.654 463.304 687.26 471.115 679.449C478.927 671.638 483.321 661.047 483.333 650V587.5H441.667V650H191.667V150H441.667V212.5H483.333V150C483.321 138.953 478.927 128.362 471.115 120.551C463.304 112.74 452.713 108.346 441.667 108.333H191.667C180.62 108.346 170.029 112.74 162.218 120.551C154.407 128.362 150.013 138.953 150 150V650C150.013 661.047 154.407 671.638 162.218 679.449C170.029 687.26 180.62 691.654 191.667 691.667Z" fill="#FF4D4D"/>
<path d="M495.542 495.542L570.25 420.833H275V379.167H570.25L495.542 304.458L525 275L650 400L525 525L495.542 495.542Z" fill="#FF4D4D"/>
</svg>
